<svg xmlns="http://www.w3.org/2000/svg" viewBox="0 0 240 80" role="img" aria-labelledby="title desc">
  <title id="title">Vehicle RC 3D</title>
  <desc id="desc">Logotip minimal per al projecte RC 3D del TdR</desc>
  <defs>
    <linearGradient id="grad-main" x1="0%" y1="0%" x2="110%" y2="120%">
      <stop offset="0%" stop-color="#ff6b4a"/>
      <stop offset="50%" stop-color="#ff8a62"/>
      <stop offset="100%" stop-color="#0d8de0"/>
    </linearGradient>
    <linearGradient id="grad-accent" x1="0%" y1="0%" x2="100%" y2="100%">
      <stop offset="0%" stop-color="#0d8de0" stop-opacity="0.65"/>
      <stop offset="100%" stop-color="#0d1226" stop-opacity="0"/>
    </linearGradient>
  </defs>

  <rect x="0" y="0" width="240" height="80" rx="18" fill="#0d1226"/>
  <rect x="6" y="6" width="228" height="68" rx="15" fill="#0f162c"/>
  <rect x="12" y="12" width="64" height="56" rx="16" fill="url(#grad-main)"/>
  <circle cx="44" cy="40" r="24" fill="#ffffff" fill-opacity="0.12"/>
  <path d="M26 40h36c0 9-7.5 16-18 16s-18-7-18-16z" fill="#0d1226" fill-opacity="0.35"/>
  <path d="M30 36.5c2.2-5.8 7.6-9.5 14-9.5 6.6 0 12.2 4.1 14.2 10.1" stroke="#fff" stroke-width="3.2" stroke-linecap="round" fill="none"/>
  <path d="M32 44c3 1.2 6.4 1.9 10 1.9 3.6 0 7.1-.7 10.2-2" stroke="#fff" stroke-width="3.2" stroke-linecap="round" fill="none"/>
  <path d="M50 28c-1.3 0-2.4-1-2.4-2.3 0-1.4 1.1-2.4 2.4-2.4s2.4 1 2.4 2.4C52.4 27 51.3 28 50 28z" fill="#fff"/>

  <rect x="88" y="20" width="134" height="40" rx="12" fill="#0f162c" stroke="#1c2b4d" stroke-width="1.5"/>
  <text x="100" y="48" fill="#f4f7fb" font-family="'Space Grotesk','Manrope',sans-serif" font-size="30" font-weight="700" letter-spacing="1">RC 3D</text>
  <text x="184" y="32" fill="#7fbff3" font-family="'IBM Plex Mono',monospace" font-size="10" letter-spacing="1">TdR</text>
  <rect x="190" y="50" width="26" height="6" rx="3" fill="url(#grad-accent)"/>
</svg>
